# xmcd
#
# Track frame offsets:
#	150
#	16720
#	42735
#	65075
#	81360
#	105060
#	124870
#	144180
#	168385
#
# Disc length: 2445 seconds
#
# Revision: 2
# Processed by: cddbd v1.5.1PL0 Copyright (c) Steve Scherf et al.
# Submitted via: EasyCDDAExtractor 5.1.0
#
DISCID=6f098b09
DTITLE=Ozzy Osbourne - Tokyo 15-07-82 Disc 2
DYEAR=1982
DGENRE=Hard Rock
TTITLE0=Keyboard Solo
TTITLE1=Goodbye To Romance
TTITLE2=I Don't Know
TTITLE3=No Bone Movies
TTITLE4=Believer
TTITLE5=Flying High Again
TTITLE6=Iron Man
TTITLE7=Children Of The Grave
TTITLE8=Paranoid
EXTD=
EXTT0=
EXTT1=
EXTT2=
EXTT3=
EXTT4=
EXTT5=
EXTT6=
EXTT7=
EXTT8=
PLAYORDER=
